#!OML:ASF E:\Steps\Project 1\Capture day 1\Session 2\Subject.ASF
:FULLY-SPECIFIED
:DEGREES
146
root 16.5587 17.9027 20.7708 -156.77 -7.93209 176.42
lowerback -25.5124 -1.27801 -6.1846
upperback 1.14313 0.0954237 -0.547305
thorax 15.7546 -0.525333 2.93478
lowerneck -4.76379 2.58369 0.586441
upperneck 13.2289 2.61746 3.1665
head 4.71282 1.33474 1.00809
rclavicle -3.16813e-014 1.22253e-014
rhumerus -38.7583 -18.8464 -76.4659
rradius 33.4663
rwrist -2.61859
rhand -6.60078 -51.2647
rfingers 7.12502
rthumb 19.2547 -80.3315
lclavicle -3.16813e-014 1.22253e-014
lhumerus -30.2881 4.22991 81.4285
lradius 24.7696
lwrist -3.4736
lhand -20.2467 -12.763
lfingers 7.12502
lthumb 6.1016 17.1291
rfemur -23.8331 5.83876 20.7495
rtibia 17.0152
rfoot -26.1408 -9.5381
rtoes -11.2125
lfemur -28.9014 -13.4918 -21.5831
ltibia 24.9339
lfoot -11.5191 -7.07401
ltoes -8.31597
147
root 16.5616 17.898 20.7695 -156.774 -8.11345 176.252
lowerback -25.3874 -1.25245 -6.22341
upperback 1.1491 0.140833 -0.599828
thorax 15.6857 -0.503001 2.91279
lowerneck -4.80774 2.43694 0.755228
upperneck 13.3236 2.4094 3.05086
head 4.75642 1.23339 0.935091
rclavicle -3.16627e-014 8.74653e-015
rhumerus -38.8348 -19.6596 -75.782
rradius 31.9078
rwrist -1.83101
rhand -7.90663 -43.9708
rfingers 7.12502
rthumb 17.9987 -73.158
lclavicle -3.16627e-014 8.74653e-015
lhumerus -30.3392 4.25718 81.3849
lradius 24.9223
lwrist -3.72506
lhand -19.9961 -12.2585
lfingers 7.12502
lthumb 6.34362 17.6265
rfemur -24.0446 5.76743 20.6165
rtibia 17.5613
rfoot -26.3053 -9.9261
rtoes -11.7294
lfemur -29.3864 -13.5445 -21.7576
ltibia 25.9556
lfoot -11.4063 -7.26191
ltoes -7.00149
148
root 16.5638 17.892 20.7679 -156.716 -8.235 176.058
lowerback -25.3326 -1.224 -6.23579
upperback 1.12551 0.188612 -0.703724
thorax 15.6208 -0.476088 2.81605
lowerneck -4.6572 2.49694 0.829361
upperneck 13.4305 2.46937 3.04844
head 4.76435 1.26058 0.924109
rclavicle -7.88305e-015 3.0911e-014
rhumerus -38.7133 -18.8231 -76.5592
rradius 33.1143
rwrist -2.24663
rhand -7.13877 -51.5266
rfingers 7.12502
rthumb 18.7374 -80.6442
lclavicle -7.88305e-015 3.0911e-014
lhumerus -30.453 4.39381 81.2763
lradius 25.0143
lwrist -3.79371
lhand -20.0159 -12.1725
lfingers 7.12502
lthumb 6.32444 17.713
rfemur -24.349 5.91167 20.4055
rtibia 18.1801
rfoot -26.226 -10.1431
rtoes -11.0056
lfemur -29.9145 -13.5747 -21.9644
ltibia 26.8884
lfoot -10.9359 -7.27877
ltoes -3.95625
149
root 16.5643 17.8854 20.7689 -156.558 -8.24736 175.822
lowerback -25.4201 -1.19211 -6.32552
upperback 1.14448 0.276761 -0.794382
thorax 15.6862 -0.443056 2.7945
lowerneck -4.66844 2.66202 0.796333
upperneck 13.4416 2.69273 3.08588
head 4.76587 1.37185 0.953411
rclavicle 1.18712e-014 -2.99916e-014
rhumerus -38.4955 -18.8666 -76.6058
rradius 33.0505
rwrist -2.13726
rhand -6.5517 -52.6083
rfingers 7.12502
rthumb 19.3019 -81.6703
lclavicle 1.18712e-014 -2.99916e-014
lhumerus -30.4139 4.09091 81.3825
lradius 25.0406
lwrist -3.10479
lhand -20.1195 -12.5867
lfingers 7.12502
lthumb 6.22449 17.3018
rfemur -24.6111 5.74824 20.1335
rtibia 18.4053
rfoot -26 -9.94862
rtoes -10.9692
lfemur -30.6635 -13.4621 -22.2625
ltibia 28.0647
lfoot -10.7704 -7.23471
ltoes -4.80149
150
root 16.5653 17.8808 20.7708 -156.401 -8.30284 175.518
lowerback -25.4087 -1.214 -6.54903
upperback 1.14198 0.318155 -0.833879
thorax 15.673 -0.441932 2.89186
lowerneck -4.85228 2.62426 0.86282
upperneck 13.4471 2.66626 2.91403
head 4.8026 1.35805 0.891194
rclavicle -3.28204e-014 1.35671e-014
rhumerus -38.3189 -18.9659 -76.4042
rradius 32.5204
rwrist -2.30801
rhand -6.7013 -48.0785
rfingers 7.12502
rthumb 19.1581 -77.1549
lclavicle -3.28204e-014 1.35671e-014
lhumerus -30.4596 3.78524 81.5794
lradius 25.144
lwrist -2.56109
lhand -20.3194 -12.9797
lfingers 7.12502
lthumb 6.03143 16.9144
rfemur -24.8845 5.36221 19.8351
rtibia 18.6858
rfoot -25.9098 -9.80516
rtoes -11.8245
lfemur -31.5859 -13.2204 -22.6602
ltibia 29.5707
lfoot -10.6456 -7.53053
ltoes -6.21821
151
root 16.5672 17.8768 20.7721 -156.272 -8.56878 175.273
lowerback -25.2615 -1.30089 -6.72944
upperback 1.05518 0.230579 -0.794753
thorax 15.4914 -0.492129 3.00789
lowerneck -4.81943 2.53444 0.822644
upperneck 13.4217 2.57292 2.77241
head 4.7915 1.30304 0.848442
rclavicle -1.03865e-014 -9.39258e-015
rhumerus -38.3402 -18.5984 -76.3595
rradius 32.8498
rwrist -2.19162
rhand -6.50801 -52.4402
rfingers 7.12502
rthumb 19.3439 -81.4981
lclavicle -1.03865e-014 -9.39258e-015
lhumerus -30.6952 3.69208 81.7376
lradius 25.3316
lwrist -2.47801
lhand -20.5214 -13
lfingers 7.12502
lthumb 5.83642 16.8996
rfemur -25.2865 5.23991 19.6075
rtibia 19.4125
rfoot -26.0559 -10.113
rtoes -12.865
lfemur -32.5851 -13.0635 -22.9173
ltibia 31.253
lfoot -10.2833 -8.03267
ltoes -5.38952
152
root 16.5633 17.8673 20.7736 -155.932 -8.87716 175.049
lowerback -25.4315 -1.34141 -6.76514
upperback 0.946387 0.186703 -0.80711
thorax 15.4607 -0.515458 2.99707
lowerneck -4.64378 2.54332 0.647203
upperneck 13.4175 2.57423 2.94809
head 4.75508 1.3012 0.928652
rclavicle -1.79403e-014 3.78188e-014
rhumerus -38.5248 -18.3936 -76.2767
rradius 33.1734
rwrist -2.56329
rhand -6.58669 -51.9212
rfingers 7.12502
rthumb 19.2683 -80.9867
lclavicle -1.79403e-014 3.78188e-014
lhumerus -30.8228 3.33059 81.9079
lradius 25.51
lwrist -2.23414
lhand -20.5321 -12.8767
lfingers 7.12502
lthumb 5.8261 17.0232
rfemur -25.8945 5.06677 19.3135
rtibia 20.0321
rfoot -26.5099 -10.2439
rtoes -12.3133
lfemur -33.8636 -13.0959 -23.0762
ltibia 32.9761
lfoot -9.87408 -8.34159
ltoes -5.05123
153
root 16.5753 17.8645 20.7729 -155.708 -8.77172 174.616
lowerback -25.4958 -1.31462 -7.23692
upperback 0.885264 0.374973 -0.952685
thorax 15.4036 -0.465529 3.16758
lowerneck -4.46672 2.52229 0.634421
upperneck 13.5907 2.48903 3.18627
head 4.77599 1.26328 0.998152
rclavicle -2.33572e-014 1.63997e-015
rhumerus -38.657 -18.7144 -76.0574
rradius 33.0308
rwrist -1.95989
rhand -6.92192 -50.1982
rfingers 7.12502
rthumb 18.9459 -79.2955
lclavicle -2.33572e-014 1.63997e-015
lhumerus -30.9528 2.90946 81.9754
lradius 25.7321
lwrist -1.97682
lhand -20.4618 -12.9798
lfingers 7.12502
lthumb 5.89399 16.9182
rfemur -26.3616 5.18029 18.8498
rtibia 20.5758
rfoot -27.0967 -10.3402
rtoes -11.2111
lfemur -34.8872 -12.4895 -23.6219
ltibia 34.5865
lfoot -9.16621 -9.1365
ltoes -2.77636
154
root 16.5798 17.8618 20.7674 -155.641 -8.79556 174.221
lowerback -25.5091 -1.35393 -7.64024
upperback 0.90134 0.454198 -1.02889
thorax 15.4221 -0.462313 3.33858
lowerneck -4.3064 2.52772 0.621017
upperneck 13.795 2.46755 3.22406
head 4.81121 1.24619 1.0101
rclavicle -1.51325e-014 3.47873e-015
rhumerus -38.5327 -18.7769 -75.9958
rradius 32.9179
rwrist -1.69635
rhand -7.43447 -51.5101
rfingers 7.12502
rthumb 18.4529 -80.6548
lclavicle -1.51325e-014 3.47873e-015
lhumerus -31.0606 2.86408 82.0244
lradius 25.9645
lwrist -1.93687
lhand -20.3897 -12.8244
lfingers 7.12502
lthumb 5.9636 17.0717
rfemur -26.6725 5.1449 18.4374
rtibia 21.2023
rfoot -26.7174 -10.6447
rtoes -12.0892
lfemur -35.7743 -12.0929 -24.1318
ltibia 36.2597
lfoot -8.48183 -9.75926
ltoes -2.46995
